# xmcd CD database file
#
# Track frame offsets:
#	150
#	17753
#	31070
#	49446
#	67135
#	82842
#	98248
#	114288
#	132048
#	145721
#
# Disc length: 2188 seconds
#
# Revision: 0
# Processed by: cddbd v1.5.1PL2 Copyright (c) Steve Scherf et al.
# Submitted via: Feurio! 1.68 - http://www.feurio.com
#
DISCID=7c088a0a
DTITLE=LANA - 1 Razlog
DYEAR=1900
DGENRE=
TTITLE0=Lana - Prava Ljubav
TTITLE1=Lana - Najbolja Glumica
TTITLE2=Lana - 1 Razlog
TTITLE3=Lana - Kao Prah
TTITLE4=Lana - Otkad Te Nema
TTITLE5=Lana - Zlato Moje
TTITLE6=Lana - Ovo Nije Istina
TTITLE7=Lana - Kradljivica Srca
TTITLE8=Lana - Prava Istina
TTITLE9=Lana - Odlazis
EXTD=
EXTT0=
EXTT1=
EXTT2=
EXTT3=
EXTT4=
EXTT5=
EXTT6=
EXTT7=
EXTT8=
EXTT9=
PLAYORDER=
